<?xml version="1.0" standalone="no"?>
<!DOCTYPE svg PUBLIC "-//W3C//DTD SVG 20010904//EN"
 "http://www.w3.org/TR/2001/REC-SVG-20010904/DTD/svg10.dtd">
<svg version="1.0" xmlns="http://www.w3.org/2000/svg"
 width="500.000000pt" height="500.000000pt" viewBox="0 0 500.000000 500.000000"
 preserveAspectRatio="xMidYMid meet">

<g transform="translate(0.000000,500.000000) scale(0.100000,-0.100000)"
fill="#000000" stroke="none">
<path d="M0 2500 l0 -2500 2500 0 2500 0 0 2500 0 2500 -2500 0 -2500 0 0
-2500z m2861 1399 c200 -155 419 -324 487 -376 l122 -95 -2 -747 -3 -746 -985
0 -985 0 -3 746 -2 746 487 377 c269 206 495 376 504 376 8 0 179 -126 380
-281z m-1423 -2287 c18 -24 15 -69 -8 -92 -20 -20 -20 -20 5 -75 13 -30 20
-55 16 -55 -5 0 -19 25 -31 55 -16 39 -28 55 -41 55 -15 0 -19 -10 -22 -57 -2
-32 -4 0 -5 71 l-2 128 38 -7 c20 -3 43 -14 50 -23z m242 18 c0 -5 -16 -10
-35 -10 -35 0 -35 0 -35 -45 0 -45 0 -45 35 -45 19 0 35 -4 35 -10 0 -5 -16
-10 -36 -10 l-35 0 3 -52 3 -53 40 -6 40 -6 -47 -2 -48 -1 0 125 0 125 40 0
c22 0 40 -4 40 -10z m235 -118 c14 -63 24 -116 21 -119 -3 -3 -10 15 -17 41
-11 43 -13 46 -44 46 -31 0 -34 -3 -40 -40 -4 -22 -11 -42 -16 -46 -12 -7 -12
-4 12 89 37 150 40 160 49 151 4 -5 20 -60 35 -122z m213 -115 l37 -4 -42 -1
-43 -2 2 128 2 127 3 -122 4 -122 37 -4z m422 233 c0 -5 -16 -10 -35 -10 -35
0 -35 0 -35 -45 0 -45 0 -45 35 -45 19 0 35 -4 35 -10 0 -5 -16 -10 -36 -10
l-35 0 3 -52 3 -53 40 -6 40 -6 -47 -2 -48 -1 0 125 0 125 40 0 c22 0 40 -4
40 -10z m236 -2 c5 -8 0 -9 -16 -5 -34 9 -60 -9 -60 -41 0 -19 11 -37 41 -63
35 -29 42 -42 41 -70 0 -19 -8 -39 -18 -46 -21 -15 -84 -17 -84 -3 0 6 10 8
24 4 35 -8 66 12 66 43 0 19 -13 39 -46 70 -40 37 -46 46 -40 70 4 15 14 34
23 41 21 15 60 16 69 0z m244 2 c0 -5 -11 -10 -25 -10 l-25 0 -2 -117 -2 -118
-3 118 c-4 117 -4 117 -28 117 -14 0 -25 5 -25 10 0 6 25 10 55 10 30 0 55 -4
55 -10z m215 -111 c14 -61 24 -116 22 -122 -2 -6 -9 10 -16 36 -11 46 -13 48
-44 45 -29 -3 -33 -7 -41 -45 -5 -24 -13 -43 -17 -43 -5 0 -7 6 -5 13 3 6 16
63 31 124 15 62 31 111 35 108 5 -3 20 -55 35 -116z m245 111 c0 -5 -9 -10
-20 -10 -19 0 -20 -7 -20 -115 0 -70 -4 -115 -10 -115 -6 0 -10 45 -10 115 0
108 -1 115 -20 115 -11 0 -20 5 -20 10 0 6 23 10 50 10 28 0 50 -4 50 -10z
m230 0 c0 -5 -16 -10 -35 -10 -35 0 -35 0 -35 -45 0 -43 1 -45 30 -45 17 0 30
-4 30 -10 0 -5 -13 -10 -30 -10 -30 0 -30 -1 -30 -54 l0 -55 38 -4 c34 -3 33
-4 -10 -5 l-48 -2 0 118 c0 65 3 122 7 125 10 11 83 8 83 -3z"/>
<path d="M2084 3803 c-220 -168 -429 -331 -467 -360 l-67 -54 2 -697 3 -697
925 0 925 0 2 700 2 700 -176 135 c-96 74 -228 176 -292 225 -64 50 -174 135
-246 189 -71 55 -149 115 -171 133 l-42 33 -398 -307z m726 -405 c0 -40 7
-293 15 -563 16 -538 18 -722 9 -712 -5 5 -35 917 -44 1330 0 9 5 17 10 17 6
0 10 -31 10 -72z m-557 -398 c4 -223 10 -515 13 -650 4 -162 3 -242 -3 -235
-6 6 -15 244 -22 615 -13 677 -13 737 -2 700 4 -14 11 -207 14 -430z m-190 63
c49 -28 69 -76 63 -147 -5 -63 -27 -104 -64 -121 -29 -13 -28 -17 11 -35 96
-45 87 -252 -13 -302 -25 -13 -59 -18 -122 -18 l-88 0 0 326 0 327 91 -6 c60
-4 100 -12 122 -24z m562 -285 c42 -172 78 -319 81 -326 2 -9 -3 -12 -18 -10
-19 3 -26 18 -51 121 l-29 117 -78 0 -78 0 -29 -117 c-25 -102 -32 -118 -50
-121 -25 -4 -33 -51 67 368 73 305 65 280 89 280 17 0 28 -37 96 -312z m350
150 c27 -86 53 -159 56 -162 3 -3 29 69 57 159 45 143 55 165 73 165 17 0 19
-4 13 -22 -4 -13 -33 -105 -65 -204 -59 -181 -59 -183 -59 -303 0 -114 -1
-121 -20 -121 -19 0 -20 7 -20 126 l0 126 -60 185 c-33 102 -60 192 -60 200 0
8 7 13 17 11 13 -2 31 -45 68 -160z m-1178 -655 c-2 -16 -4 -5 -4 22 0 28 2
40 4 28 2 -13 2 -35 0 -50z m1135 5 c-2 -15 -5 -28 -7 -28 -2 0 -5 13 -7 28
-2 17 1 29 7 29 6 0 9 -12 7 -29z m85 -5 c-3 -10 -5 -4 -5 12 0 17 2 24 5 18
2 -7 2 -21 0 -30z m210 0 c-3 -10 -5 -4 -5 12 0 17 2 24 5 18 2 -7 2 -21 0
-30z m-600 -5 c-3 -8 -6 -5 -6 6 -1 11 2 17 5 13 3 -3 4 -12 1 -19z m70 0 c-3
-8 -6 -5 -6 6 -1 11 2 17 5 13 3 -3 4 -12 1 -19z"/>
<path d="M1890 2925 l0 -125 66 0 c59 0 68 3 94 28 39 39 49 107 24 159 -24
48 -54 63 -126 63 l-58 0 0 -125z"/>
<path d="M1890 2620 l0 -140 68 0 c46 0 75 5 91 16 48 34 65 130 37 199 -19
45 -61 65 -136 65 l-60 0 0 -140z"/>
<path d="M2495 2882 c-17 -75 -31 -143 -33 -149 -3 -10 16 -13 68 -13 63 0 71
2 66 18 -3 9 -19 75 -35 145 -16 71 -31 130 -33 132 -2 2 -17 -58 -33 -133z"/>
<path d="M1360 1565 c0 -59 9 -67 51 -45 25 14 27 85 3 94 -44 17 -54 8 -54
-49z"/>
<path d="M1862 1560 c-16 -69 -16 -70 14 -70 25 0 25 2 19 43 -14 78 -20 83
-33 27z"/>
<path d="M3193 1558 c-12 -60 -10 -68 19 -68 19 0 20 4 13 48 -11 72 -20 78
-32 20z"/>
</g>
</svg>
